# xmcd
#
# Track frame offsets:
# 150
# 29815
# 54680
# 80405
# 108720
# 133690
# 156940
# 180530
# 208555
# 234805
# 255675
# 275765
#
# Disc length: 3957 seconds
#
# Revision: 1
# Processed by: cddbd v1.4PL0 Copyright (c) Steve Scherf et al.
# Submitted via: Axialis_AX_CDPlayer 2.6
#
DISCID=ad0f730c
DTITLE=George Michael - Unplugged
DYEAR=2000
DGENRE=Pop
TTITLE0=Freedom
TTITLE1=Fastlove
TTITLE2=I Can't Make You Love Me
TTITLE3=Father Figure
TTITLE4=You Have Been Loved
TTITLE5=Everything She Wants
TTITLE6=Praying For Time
TTITLE7=Star People
TTITLE8=Don't Let The Sun Go Down On Me
TTITLE9=You Know That I Want To
TTITLE10=Safe
TTITLE11=Spinning The Wheel (Forthright Edit)
EXTD=
EXTT0=
EXTT1=
EXTT2=
EXTT3=
EXTT4=
EXTT5=
EXTT6=
EXTT7=
EXTT8=
EXTT9=
EXTT10=
EXTT11=
PLAYORDER=
